<?xml version="1.0" standalone="no"?>
<!DOCTYPE svg PUBLIC "-//W3C//DTD SVG 20010904//EN"
 "http://www.w3.org/TR/2001/REC-SVG-20010904/DTD/svg10.dtd">
<svg version="1.0" xmlns="http://www.w3.org/2000/svg"
 width="720.000000pt" height="1674.000000pt" viewBox="0 0 720.000000 1674.000000"
 preserveAspectRatio="xMidYMid meet">

<g transform="translate(0.000000,1674.000000) scale(0.100000,-0.100000)"
fill="#000000" stroke="none">
<path d="M0 8370 l0 -8370 3600 0 3600 0 0 6917 c0 3905 -4 6913 -9 6908 -42
-47 -55 -185 -101 -1080 -6 -110 -17 -308 -25 -440 -8 -132 -17 -301 -20 -375
-3 -74 -10 -202 -15 -285 -5 -82 -14 -242 -20 -355 -20 -392 -50 -937 -65
-1200 -8 -146 -31 -560 -50 -920 -19 -360 -37 -682 -40 -715 -2 -33 -9 -159
-15 -280 -6 -121 -15 -281 -20 -355 -5 -74 -12 -187 -15 -250 -3 -63 -15 -277
-26 -475 -23 -403 -28 -622 -16 -677 5 -23 4 -38 -2 -38 -5 0 -14 23 -20 50
-19 88 -18 107 44 1230 8 151 24 455 35 675 11 220 22 434 25 475 2 41 7 134
10 205 4 72 10 184 15 250 13 168 36 543 60 990 11 209 27 497 35 640 8 143
29 499 45 790 38 661 48 837 60 1045 5 91 17 293 25 450 27 493 39 590 86 666
18 30 19 71 19 1463 l0 1431 -3600 0 -3600 0 0 -8370z"/>
</g>
</svg>
